**ABCDEFGHIJKLMNOPQRSTUVWXYZabcdefghijklmnopqrstuvwxyz**************************
**PARASOLID !"#$%&'()*+,-./:;<=>?@[\]^_`{|}~0123456789**************************
**PART1;
MC=;
MC_MODEL=;
MC_ID=unknown;
OS=Windows;
OS_RELEASE=;
FRU=;
APPL=Autodesk Inventor 2023;
SITE=unknown;
USER=unknown;
FORMAT=text;
GUISE=transmit;
KEY=Rod qty-6 Not hollow;
FILE=C:\Users\earls\Documents\stewart-platform\CAD\Rod qty-6 Not hollow.x_t;
DATE=2022-Jul-07 16:26:45;
**PART2;
SCH=SCH_3301154_33103;
USFLD_SIZE=0;
**PART3;
**END_OF_HEADER*****************************************************************
T51 : TRANSMIT FILE created by modeller version 330115417 SCH_3300000_320010 12
 1 51 2 3 0 0 0 0 0 0 1e3 1e-8 0 0 0 1 0 1 1 4 5 6 7 0 0 8 9 10 0 0 0 0 0 0 0 81
 1 2 51 11 1 12 0 0 0 13 70 3 0 4 T1 0 0 6 20 1 14 14 13 4 24 0 1 0 15 0 0 16 0
 50 5 36 0 15 17 0 0 +0 0 0 0 0 -1 1 0 0 31 6 32 0 9 18 0 0 +0 0 0 0 0 1 1 0 0 .
005 29 7 28 0 10 19 0 .005 0 0 19 8 1 0 1 16 0 20 V0 16 9 15 0 ?21 0 22 6 0 0 1
 18 10 16 0 21 0 23 7 ?1 17 21 0 24 21 21 10 25 9 0 25 +18 23 13 0 26 10 27 19 ?
1 17 26 0 28 26 26 23 29 22 0 29 +18 27 9 0 30 23 31 32 ?1 29 19 27 0 23 32 7 .0
05 0 .14 29 32 26 0 27 33 19 .0035 4286263797015735e-34 0 29 33 25 0 31 0 32 .00
35 4286263797015735e-34 .14 18 31 6 0 34 27 0 33 ?1 17 34 0 35 34 34 31 36 37 0
 36 +15 35 19 0 34 38 28 17 36 0 39 36 36 31 34 37 0 0 -16 37 5 0 ?34 40 0 41 0
 0 1 16 40 8 0 ?30 22 37 42 0 0 1 31 41 29 0 37 0 42 0 +0 0 .14 0 0 -1 -1 0 0 .0
035 31 42 30 0 40 41 18 0 +0 0 0 0 0 -1 -1 0 0 .0035 31 18 31 0 22 42 6 0 +0 0 .
14 0 0 1 1 0 0 .005 16 22 12 0 ?26 9 40 18 0 0 1 17 30 0 43 30 30 27 44 40 0 44
 +15 43 7 0 30 45 39 17 44 0 46 44 44 27 30 40 0 0 -15 46 22 0 44 15 47 14 15 20
 48 ?38 0 46 4 5 +0 0 38 0 20 15 47 21 0 25 15 0 17 25 0 47 25 25 10 21 9 0 0 -8
1 1 48 50 49 15 50 0 51 0 52 14 38 17 51 ?53 15 35 4 17 +0 0 53 15 20 13 20 2 0
 0 0 0 0 0 8 15 81 1 51 47 49 38 54 0 55 48 56 14 53 10 55 ?45 38 24 4 57 +0 0 4
5 38 20 50 17 35 0 38 57 5 0 +0 0 .14 0 0 1 1 0 0 51 57 34 0 53 58 17 0 +0 0 0 0
 0 1 .005 1 0 0 51 58 33 0 45 0 57 0 +0 0 0 0 0 -1 .0035 -1 0 0 14 45 3 59 ?0 53
 43 4 58 -0 0 0 53 20 81 1 59 41 49 45 60 0 0 55 61 80 1 49 62 63 8015 0 0 0 0 3
 5 0 0 0 FFFFTFFFFFFFFF2 81 2 60 40 62 45 64 59 0 65 66 67 81 1 55 44 49 53 65 0
 59 51 68 83 1 61 0 81 2 65 43 62 53 69 55 60 54 70 71 83 1 68 0 80 2 62 72 73 8
014 0 0 0 0 3 5 0 0 0 FFFFTFFFFFFFFF2 1 81 1 69 42 74 53 0 65 64 75 76 81 2 54 4
6 62 38 75 51 65 50 77 78 83 4 70 .99998468160538 0 .99998468160538 .99998468160
538 82 1 71 1 81 1 75 45 74 38 0 54 69 79 80 81 2 50 49 62 15 79 48 54 0 81 82 8
3 4 77 .99998468160538 0 .99998468160538 .99998468160538 82 1 78 1 81 1 79 48 74
 15 0 50 75 0 83 83 4 81 .99998468160538 0 .99998468160538 .99998468160538 82 1
 82 1 80 1 74 0 84 8001 0 0 0 0 3 5 0 0 0 FFFFTFTFFFFFFF2 83 3 83 .9960784313725
49 .996078431372549 1 79 15 84 SDL/TYSA_COLOUR83 3 80 .996078431372549 .99607843
1372549 1 81 1 64 39 74 45 0 60 0 69 85 83 3 76 .996078431372549 .99607843137254
9 1 83 3 85 .996078431372549 .996078431372549 1 79 21 73 SDL/TYSA_REFLECTIVITY83
 4 66 .99998468160538 0 .99998468160538 .99998468160538 82 1 67 1 79 21 63 SDL/T
YSA_TRANSLUCENCY15 24 14 0 21 53 86 15 86 11 0 29 53 0 17 29 0 86 29 29 23 26 22
 0 0 -83 1 56 0 83 1 52 0 15 39 4 0 36 45 0 15 28 18 0 26 38 0 19 16 23 0 1 0 8
 4 S0 74 20 14 6 0 0 87 12 79 50 48 2 0 0 0 0 0 0 0 0 0 0 0 0 0 0 81 1 87 37 88
 1 0 12 0 0 89 81 1 12 38 90 1 87 2 0 0 91 80 1 90 49 92 8041 0 0 0 0 3 5 0 0 0
 TTTFFFFFFFFFFF2 83 1 91 0 79 23 92 SDL/TYSA_TRANSLUCENCY_280 1 88 74 93 8040 0
 0 0 0 3 5 0 0 0 TTTFFFFFFFFFFF2 83 3 89 .996078431372549 .996078431372549 1 79
 17 93 SDL/TYSA_COLOUR_280 1 11 94 95 8017 0 0 0 0 0 0 0 0 0 TTTTTTTTTTTTTF3 84
 6 13 Solid179 13 95 SDL/TYSA_NAME1 0 
